<mxfile host="app.diagrams.net" modified="2023-11-08T01:37:08.526Z" agent="Mozilla/5.0 (Windows NT 10.0; Win64; x64) AppleWebKit/537.36 (KHTML, like Gecko) Chrome/118.0.0.0 Safari/537.36" version="22.0.8" etag="nIQL17cejTuwLp3MKQBY" type="github">
  <diagram name="Page-1" id="eG5Kyin6unwCIiOrZdDD">
    <mxGraphModel>
      <root>
        <mxCell id="0" />
        <mxCell id="1" parent="0" />
      </root>
    </mxGraphModel>
  </diagram>
</mxfile>
